<svg width="54" height="54" viewBox="0 0 54 54" fill="none" xmlns="http://www.w3.org/2000/svg">
<rect width="54" height="54" fill="#F4A100"/>
<g clip-path="url(#clip0_131630_28738)">
<path d="M27.0001 22.5496C26.763 22.5496 26.5356 22.4572 26.368 22.2928C26.2004 22.1283 26.1062 21.9053 26.1062 21.6727V14.8769C26.1062 14.6443 26.2004 14.4213 26.368 14.2568C26.5356 14.0924 26.763 14 27.0001 14C27.2371 14 27.4645 14.0924 27.6321 14.2568C27.7997 14.4213 27.8939 14.6443 27.8939 14.8769V21.6727C27.8939 21.9053 27.7997 22.1283 27.6321 22.2928C27.4645 22.4572 27.2371 22.5496 27.0001 22.5496Z" fill="white"/>
<path d="M35.6123 26.0486C35.4357 26.0487 35.263 25.9975 35.116 25.9014C34.969 25.8054 34.8544 25.6687 34.7865 25.5088C34.7186 25.3488 34.7005 25.1727 34.7345 25.0027C34.7686 24.8327 34.8532 24.6764 34.9777 24.5535L39.8939 19.7306C40.0616 19.5661 40.2891 19.4736 40.5263 19.4736C40.7635 19.4736 40.991 19.5661 41.1587 19.7306C41.3264 19.8951 41.4207 20.1183 41.4207 20.351C41.4207 20.5837 41.3264 20.8069 41.1587 20.9714L36.2425 25.7943C36.0749 25.9573 35.8484 26.0488 35.6123 26.0486V26.0486Z" fill="white"/>
<path d="M18.3877 26.0486C18.1516 26.0488 17.9251 25.9573 17.7575 25.7943L12.8413 20.9714C12.6736 20.8069 12.5793 20.5837 12.5793 20.351C12.5793 20.1183 12.6736 19.8951 12.8413 19.7306C13.009 19.5661 13.2365 19.4736 13.4737 19.4736C13.7109 19.4736 13.9384 19.5661 14.1061 19.7306L19.0223 24.5535C19.1054 24.6349 19.1713 24.7316 19.2163 24.8381C19.2613 24.9445 19.2845 25.0586 19.2845 25.1739C19.2845 25.2891 19.2613 25.4032 19.2163 25.5097C19.1713 25.6161 19.1054 25.7128 19.0223 25.7943C18.9388 25.8755 18.8397 25.9398 18.7308 25.9835C18.6219 26.0271 18.5053 26.0492 18.3877 26.0486V26.0486Z" fill="white"/>
<path d="M14.8212 34.4974H7.89385C7.65679 34.4974 7.42943 34.405 7.2618 34.2406C7.09417 34.0761 7 33.8531 7 33.6205C7 33.388 7.09417 33.1649 7.2618 33.0005C7.42943 32.836 7.65679 32.7437 7.89385 32.7437H14.8212C15.0583 32.7437 15.2856 32.836 15.4533 33.0005C15.6209 33.1649 15.7151 33.388 15.7151 33.6205C15.7151 33.8531 15.6209 34.0761 15.4533 34.2406C15.2856 34.405 15.0583 34.4974 14.8212 34.4974Z" fill="white"/>
<path d="M46.1061 34.4974H39.1788C38.9417 34.4974 38.7143 34.405 38.5467 34.2406C38.3791 34.0761 38.2849 33.8531 38.2849 33.6205C38.2849 33.388 38.3791 33.1649 38.5467 33.0005C38.7143 32.836 38.9417 32.7437 39.1788 32.7437H46.1061C46.3432 32.7437 46.5706 32.836 46.7382 33.0005C46.9058 33.1649 47 33.388 47 33.6205C47 33.8531 46.9058 34.0761 46.7382 34.2406C46.5706 34.405 46.3432 34.4974 46.1061 34.4974Z" fill="white"/>
<path d="M42.6424 37.2375H36.1262C36.7233 35.7739 36.9456 34.1891 36.7737 32.6217C36.6018 31.0543 36.0409 29.5521 35.1401 28.2466C34.2393 26.9411 33.0261 25.8721 31.6066 25.1332C30.1871 24.3942 28.6047 24.0078 26.9977 24.0078C25.3907 24.0078 23.8083 24.3942 22.3888 25.1332C20.9693 25.8721 19.7561 26.9411 18.8553 28.2466C17.9545 29.5521 17.3936 31.0543 17.2217 32.6217C17.0498 34.1891 17.2721 35.7739 17.8692 37.2375H11.3575C11.1204 37.2375 10.8931 37.3299 10.7254 37.4944C10.5578 37.6588 10.4636 37.8818 10.4636 38.1144C10.4636 38.347 10.5578 38.57 10.7254 38.7345C10.8931 38.8989 11.1204 38.9913 11.3575 38.9913H42.6424C42.8795 38.9913 43.1068 38.8989 43.2744 38.7345C43.4421 38.57 43.5362 38.347 43.5362 38.1144C43.5362 37.8818 43.4421 37.6588 43.2744 37.4944C43.1068 37.3299 42.8795 37.2375 42.6424 37.2375Z" fill="white"/>
</g>
<defs>
<clipPath id="clip0_131630_28738">
<rect width="40" height="25" fill="white" transform="translate(7 14)"/>
</clipPath>
</defs>
</svg>
