<svg width="16" height="18" viewBox="0 0 16 18" fill="none" xmlns="http://www.w3.org/2000/svg">
<path d="M6.80281 1.1464L7.59558 0.276313C7.93126 -0.0921043 8.47406 -0.0921043 8.80616 0.276313L15.7482 7.89158C16.0839 8.25999 16.0839 8.85573 15.7482 9.22023L8.80616 16.8394C8.47048 17.2078 7.92769 17.2078 7.59558 16.8394L6.80281 15.9693C6.46356 15.597 6.47071 14.9895 6.8171 14.625L11.1202 10.1256H0.857047C0.3821 10.1256 0 9.70623 0 9.18495V7.93077C0 7.4095 0.3821 6.99013 0.857047 6.99013H11.1202L6.8171 2.49074C6.46714 2.12624 6.45999 1.51874 6.80281 1.1464Z" fill="white"/>
</svg>
