<svg width="24" height="40" viewBox="0 0 24 40" fill="none" xmlns="http://www.w3.org/2000/svg">
<path d="M15.5955 7.4989C17.5827 7.4989 19.1949 5.81946 19.1949 3.74945C19.1949 1.67944 17.5827 0 15.5955 0C13.6083 0 11.9961 1.67944 11.9961 3.74945C11.9961 5.81946 13.6083 7.4989 15.5955 7.4989ZM22.6818 19.1456L20.9346 18.2239L20.2072 15.9274C19.1049 12.4435 16.0304 10.0063 12.5435 9.99854C9.84396 9.99072 8.35171 10.7875 5.54719 11.967C3.92746 12.6466 2.60019 13.9355 1.82032 15.5758L1.3179 16.6382C0.733001 17.8724 1.20542 19.3722 2.38272 19.9893C3.55253 20.6064 4.97728 20.1064 5.56968 18.8722L6.0721 17.8099C6.33456 17.2631 6.76948 16.8335 7.30939 16.6069L9.31905 15.7633L8.17924 20.5048C7.78931 22.1296 8.20924 23.8559 9.29655 25.0979L13.7883 30.2065C14.3282 30.8236 14.7106 31.5657 14.9056 32.3703L16.2779 38.096C16.6003 39.4317 17.9051 40.2519 19.1874 39.916C20.4697 39.5801 21.257 38.221 20.9346 36.8852L19.2699 29.9331C19.0749 29.1285 18.6925 28.3787 18.1526 27.7694L14.7406 23.8871L16.0304 18.5207L16.4428 19.8096C16.8403 21.0672 17.6951 22.1061 18.8199 22.6998L20.5672 23.6215C21.737 24.2386 23.1617 23.7387 23.7541 22.5045C24.3315 21.2781 23.8591 19.7627 22.6818 19.1456V19.1456ZM5.51719 30.1362C5.27723 30.7689 4.91729 31.3392 4.45237 31.8157L0.703006 35.7291C-0.234335 36.7056 -0.234335 38.2913 0.703006 39.2677C1.64035 40.2441 3.15509 40.2441 4.09243 39.2677L8.54668 34.6277C9.0041 34.1512 9.36404 33.581 9.6115 32.9483L10.6238 30.3081C6.47703 25.5978 7.72182 27.0429 7.06943 26.1134L5.51719 30.1362V30.1362Z" fill="white"/>
</svg>
