<svg width="36" height="36" viewBox="0 0 36 36" fill="none" xmlns="http://www.w3.org/2000/svg">
<g clip-path="url(#clip0_131522_141)">
<path d="M2.50642 2.51562C2.25579 2.76641 3.48617 5.99631 4.02541 6.52829L21.6609 24.1749C21.8052 24.3209 21.9133 24.4986 21.9766 24.694C22.0399 24.8893 22.0566 25.0967 22.0254 25.2997L21.6305 27.876L22.1013 28.3472L23.5824 24.3421C23.6483 24.169 23.7501 24.0119 23.881 23.8809C24.0119 23.7499 24.1689 23.6481 24.3419 23.5821L28.3444 22.0622L27.8735 21.591L25.3064 21.9938C25.103 22.0253 24.895 22.008 24.6995 21.9432C24.5041 21.8785 24.3268 21.7681 24.1824 21.6214L6.53933 3.97477C6.00009 3.43519 2.74186 2.23443 2.49882 2.50042L2.50642 2.51562ZM12.6305 30.7943C12.4137 30.5429 12.3 30.2188 12.3122 29.8871C12.3243 29.5553 12.4615 29.2404 12.6961 29.0056C12.9307 28.7709 13.2454 28.6336 13.577 28.6214C13.9085 28.6092 14.2324 28.723 14.4836 28.9399L19.2836 33.743C19.4053 33.8642 19.5019 34.0083 19.568 34.1669C19.634 34.3255 19.6682 34.4956 19.6686 34.6675C19.6689 34.8393 19.6354 35.0095 19.57 35.1684C19.5046 35.3273 19.4086 35.4718 19.2874 35.5935C19.1663 35.7153 19.0223 35.812 18.8638 35.878C18.7052 35.9441 18.5353 35.9783 18.3635 35.9787C18.1918 35.979 18.0217 35.9455 17.8629 35.8801C17.7041 35.8147 17.5598 35.7186 17.4381 35.5973L12.6305 30.7943ZM28.952 14.47C28.7063 14.2251 28.5678 13.8926 28.5671 13.5455C28.5664 13.1985 28.7035 12.8654 28.9482 12.6195C29.1929 12.3736 29.5253 12.235 29.8721 12.2343C30.2189 12.2336 30.5518 12.3708 30.7976 12.6157L35.6051 17.4187C35.8219 17.6701 35.9356 17.9942 35.9235 18.326C35.9113 18.6577 35.7741 18.9726 35.5395 19.2074C35.3049 19.4421 34.9902 19.5794 34.6587 19.5916C34.3271 19.6038 34.0032 19.49 33.752 19.2731L28.952 14.47ZM13.6558 7.37946L27.7748 4.84114C27.9817 4.80326 28.1948 4.81596 28.3958 4.87815C28.5967 4.94034 28.7797 5.05018 28.9292 5.19833L31.7621 8.02544C31.9209 8.18664 32.0354 8.38613 32.0946 8.6046C32.1537 8.82308 32.1555 9.05312 32.0997 9.27248C32.044 9.49184 31.9326 9.6931 31.7763 9.85674C31.62 10.0204 31.4241 10.1409 31.2077 10.2066L20.6811 14.4092L25.5874 19.3187L28.1545 18.9159C28.3579 18.885 28.5658 18.9026 28.7611 18.9673C28.9565 19.032 29.1338 19.142 29.2786 19.2883L31.6634 21.6746C31.8182 21.8301 31.9314 22.0222 31.9925 22.2331C32.0536 22.4439 32.0607 22.6668 32.013 22.8811C31.9653 23.0954 31.8644 23.2943 31.7197 23.4593C31.575 23.6243 31.3911 23.7502 31.1849 23.8253L25.8684 25.8088L23.9089 31.1287C23.8348 31.3387 23.7096 31.5269 23.5447 31.6766C23.3799 31.8262 23.1804 31.9326 22.9644 31.9861C22.7483 32.0396 22.5223 32.0385 22.3067 31.9831C22.0911 31.9276 21.8927 31.8194 21.7292 31.6682L19.3064 29.2287C19.1597 29.0842 19.0495 28.9068 18.9848 28.7113C18.9201 28.5157 18.9028 28.3075 18.9343 28.104L19.3292 25.5277L14.4153 20.6486L10.2153 31.1819C10.1515 31.3999 10.032 31.5976 9.86865 31.7553C9.70527 31.9131 9.50361 32.0255 9.28357 32.0815C9.06354 32.1375 8.8327 32.1351 8.61385 32.0747C8.39499 32.0142 8.19568 31.8977 8.03554 31.7366L5.21022 28.9019C5.06134 28.7528 4.9505 28.5699 4.88705 28.3689C4.8236 28.1678 4.80941 27.9545 4.84565 27.7468L7.38996 13.6264L2.14946 8.37502C0.744397 6.96907 -0.979654 2.29522 0.630473 0.668878C2.2406 -0.957468 6.94945 0.714482 8.37729 2.13563L13.6178 7.37946H13.6558ZM27.5621 7.53145L15.9039 9.62899L18.676 12.4029L28.5494 8.48142L27.6001 7.53145H27.5621ZM9.66844 15.8912L7.57984 27.534L8.5292 28.4839L12.4558 18.6423L9.68362 15.8684L9.66844 15.8912Z" fill="#4D7FBE"/>
</g>
<defs>
<clipPath id="clip0_131522_141">
<rect width="36" height="36" fill="white"/>
</clipPath>
</defs>
</svg>
