<svg width="12" height="13" viewBox="0 0 12 13" fill="none" xmlns="http://www.w3.org/2000/svg">
<path d="M8.27455 6.41834L11.686 2.769C12.1047 2.32118 12.1047 1.5951 11.686 1.14691L10.9278 0.335869C10.5092 -0.111956 9.83046 -0.111956 9.41148 0.335869L6 3.9852L2.58852 0.335869C2.16989 -0.111956 1.49114 -0.111956 1.07216 0.335869L0.313977 1.14691C-0.104659 1.59474 -0.104659 2.32081 0.313977 2.769L3.72545 6.41834L0.313977 10.0677C-0.104659 10.5155 -0.104659 11.2416 0.313977 11.6898L1.07216 12.5008C1.4908 12.9486 2.16989 12.9486 2.58852 12.5008L6 8.85147L9.41148 12.5008C9.83011 12.9486 10.5092 12.9486 10.9278 12.5008L11.686 11.6898C12.1047 11.2419 12.1047 10.5159 11.686 10.0677L8.27455 6.41834Z" fill="#FF7A00"/>
</svg>
