<svg width="25" height="30" viewBox="0 0 25 30" fill="none" xmlns="http://www.w3.org/2000/svg">
<g clip-path="url(#clip0_131522_149)">
<path d="M3.9353 20.3975C5.91337 26.1437 10.8759 30 16.2548 30C19.5442 29.9775 22.6899 28.643 25 26.2901L22.3279 23.7517C20.7044 25.3495 18.5273 26.252 16.2548 26.2692C13.0761 26.2692 10.0083 24.3236 8.15519 21.1925L7.24598 19.6165H16.3104V17.3849H6.76013L6.62131 16.5063C6.54205 15.9826 6.50952 15.4528 6.52413 14.9233C6.513 14.401 6.54318 13.8787 6.61436 13.3612L6.73928 12.4616H16.3104V10.2231H7.28762L8.14824 8.67504C8.92542 7.17658 10.0864 5.91356 11.5114 5.01626C12.9364 4.11895 14.5738 3.61985 16.2548 3.57043C18.5396 3.61397 20.7177 4.54938 22.3279 6.17852L24.9931 3.7099C22.6757 1.3721 19.5385 0.0401981 16.2548 0C10.8412 0 5.88561 3.85634 3.9353 9.59553L3.6924 10.2929H0V12.5244H3.2343L3.03303 13.7448C2.97966 14.1562 2.95875 14.5713 2.97055 14.986C2.95894 15.4031 2.97984 15.8205 3.03303 16.2343L3.2343 17.4477H0V19.6862H3.6924L3.9353 20.3975Z" fill="#4D7FBE"/>
</g>
<defs>
<clipPath id="clip0_131522_149">
<rect width="25" height="30" fill="white"/>
</clipPath>
</defs>
</svg>
