<svg width="32" height="36" viewBox="0 0 32 36" fill="none" xmlns="http://www.w3.org/2000/svg">
<g clip-path="url(#clip0_131522_139)">
<path fill-rule="evenodd" clip-rule="evenodd" d="M15.9961 0C15.0181 0.00199884 14.0807 0.38113 13.3884 1.05461C12.6961 1.7281 12.3052 2.64124 12.3011 3.59469V10.7916C12.3052 11.7458 12.6958 12.6597 13.3879 13.3344C14.08 14.0091 15.0174 14.3899 15.9961 14.3939H16.7211L18.8181 16.4459C18.9318 16.5578 19.0672 16.6466 19.2164 16.7072C19.3656 16.7678 19.5256 16.799 19.6872 16.799C19.8489 16.799 20.0089 16.7678 20.1581 16.7072C20.3072 16.6466 20.4426 16.5578 20.5564 16.4459L22.6612 14.3939H28.305C29.2837 14.3899 30.2212 14.0091 30.9133 13.3344C31.6053 12.6597 31.9959 11.7458 32 10.7916V3.59469C31.9959 2.64124 31.605 1.7281 30.9128 1.05461C30.2205 0.38113 29.283 0.00199884 28.305 0H15.9961ZM15.9961 2.39393H28.305C28.4676 2.39083 28.6292 2.41976 28.7801 2.47901C28.931 2.53826 29.068 2.6266 29.183 2.73872C29.298 2.85084 29.3886 2.98445 29.4494 3.13153C29.5102 3.27862 29.5399 3.43615 29.5367 3.59469V10.7916C29.5399 10.9502 29.5102 11.1077 29.4494 11.2548C29.3886 11.4019 29.298 11.5355 29.183 11.6476C29.068 11.7597 28.931 11.8481 28.7801 11.9073C28.6292 11.9666 28.4676 11.9955 28.305 11.9924H22.1545C21.992 11.9929 21.8312 12.0246 21.6813 12.0859C21.5315 12.1472 21.3956 12.2368 21.2814 12.3496L19.7223 13.8695L18.1243 12.3496C18.0121 12.2364 17.8776 12.1464 17.729 12.085C17.5803 12.0237 17.4204 11.9922 17.259 11.9924H16.0273C15.8647 11.9955 15.7031 11.9666 15.5522 11.9073C15.4014 11.8481 15.2643 11.7597 15.1493 11.6476C15.0343 11.5355 14.9437 11.4019 14.8829 11.2548C14.8222 11.1077 14.7925 10.9502 14.7956 10.7916V3.59469C14.7925 3.43873 14.8213 3.28371 14.8801 3.13865C14.9389 2.99359 15.0268 2.86137 15.1384 2.74967C15.2501 2.63796 15.3834 2.54898 15.5307 2.48792C15.6779 2.42685 15.8361 2.3949 15.9961 2.39393ZM18.4595 5.9962C18.1382 6.00214 17.8321 6.13024 17.6063 6.35315C17.3806 6.57605 17.2532 6.87613 17.2512 7.18937C17.2512 7.50783 17.3809 7.81325 17.6119 8.03843C17.8429 8.26362 18.1562 8.39013 18.4828 8.39013C18.8095 8.39013 19.1228 8.26362 19.3538 8.03843C19.5848 7.81325 19.7145 7.50783 19.7145 7.18937C19.7145 6.8709 19.5848 6.56548 19.3538 6.3403C19.1228 6.11511 18.8095 5.9886 18.4828 5.9886L18.4595 5.9962ZM22.1545 5.9962C21.8278 5.9962 21.5145 6.12272 21.2835 6.3479C21.0526 6.57309 20.9228 6.8785 20.9228 7.19696C20.9228 7.35465 20.9547 7.51079 21.0166 7.65648C21.0785 7.80216 21.1692 7.93453 21.2835 8.04603C21.3979 8.15753 21.5337 8.24598 21.6831 8.30632C21.8326 8.36666 21.9927 8.39772 22.1545 8.39772C22.3162 8.39772 22.4764 8.36666 22.6258 8.30632C22.7753 8.24598 22.911 8.15753 23.0254 8.04603C23.1398 7.93453 23.2305 7.80216 23.2924 7.65648C23.3543 7.51079 23.3861 7.35465 23.3861 7.19696C23.3861 6.8785 23.2564 6.57309 23.0254 6.3479C22.7944 6.12272 22.4811 5.9962 22.1545 5.9962ZM25.8417 5.9962C25.515 5.9962 25.2017 6.12272 24.9708 6.3479C24.7398 6.57309 24.61 6.8785 24.61 7.19696C24.61 7.35465 24.6419 7.51079 24.7038 7.65648C24.7657 7.80216 24.8564 7.93453 24.9708 8.04603C25.0851 8.15753 25.2209 8.24598 25.3704 8.30632C25.5198 8.36666 25.6799 8.39772 25.8417 8.39772C26.0041 8.39773 26.1649 8.36642 26.3148 8.3056C26.4648 8.24478 26.6009 8.15566 26.7154 8.04335C26.8298 7.93104 26.9204 7.79777 26.9818 7.65121C27.0433 7.50465 27.0744 7.34769 27.0734 7.18937C27.0734 6.8709 26.9436 6.56548 26.7126 6.3403C26.4816 6.11511 26.1683 5.9886 25.8417 5.9886V5.9962ZM11.0695 14.3559C9.83124 14.3549 8.62159 14.7187 7.59918 15.3997C6.57677 16.0806 5.78931 17.0469 5.34007 18.1718C4.89084 19.2967 4.8008 20.5277 5.08177 21.7034C5.36273 22.879 6.00156 23.9445 6.91452 24.76C4.87348 25.5669 3.12549 26.9486 1.89387 28.7287C0.66224 30.5088 0.00288772 32.6064 2.48215e-05 34.7536C-0.00100307 34.911 0.0299036 35.0669 0.0909486 35.2126C0.151994 35.3582 0.241977 35.4907 0.355727 35.6023C0.469476 35.7139 0.604729 35.8024 0.753726 35.8629C0.902724 35.9233 1.06252 35.9544 1.2239 35.9544H8.61392C8.94058 35.9544 9.25385 35.8279 9.48484 35.6027C9.71582 35.3775 9.84558 35.0721 9.84558 34.7536C9.84558 34.4352 9.71582 34.1298 9.48484 33.9046C9.25385 33.6794 8.94058 33.5529 8.61392 33.5529H2.70502C2.96201 31.5659 3.95395 29.7387 5.49471 28.4141C7.03546 27.0895 9.01911 26.3586 11.0734 26.3586C13.1276 26.3586 15.1112 27.0895 16.652 28.4141C18.1928 29.7387 19.1847 31.5659 19.4417 33.5529H18.4595C18.1328 33.5529 17.8195 33.6794 17.5885 33.9046C17.3576 34.1298 17.2278 34.4352 17.2278 34.7536C17.2278 35.0721 17.3576 35.3775 17.5885 35.6027C17.8195 35.8279 18.1328 35.9544 18.4595 35.9544H20.9228C21.0842 35.9554 21.2442 35.9253 21.3935 35.8658C21.5429 35.8063 21.6788 35.7185 21.7933 35.6076C21.9077 35.4967 21.9986 35.3649 22.0606 35.2196C22.1226 35.0743 22.1545 34.9186 22.1545 34.7612C22.1495 32.6145 21.4893 30.5178 20.258 28.7381C19.0266 26.9583 17.2798 25.5762 15.24 24.7676C16.1539 23.9512 16.7932 22.8844 17.0737 21.7073C17.3542 20.5302 17.2628 19.2979 16.8116 18.1723C16.3604 17.0468 15.5705 16.0806 14.5457 15.4008C13.5208 14.721 12.309 14.3594 11.0695 14.3635V14.3559ZM11.0695 16.7574C11.8006 16.7559 12.5157 16.9659 13.1244 17.3608C13.7331 17.7558 14.2079 18.3178 14.4887 18.9759C14.7696 19.634 14.8439 20.3586 14.7022 21.0578C14.5605 21.7571 14.2092 22.3997 13.6928 22.9042C13.1763 23.4088 12.518 23.7526 11.801 23.8922C11.084 24.0318 10.3407 23.9609 9.66504 23.6885C8.98942 23.4161 8.41186 22.9544 8.00551 22.3618C7.59915 21.7693 7.38224 21.0725 7.38224 20.3597C7.38429 19.8897 7.48129 19.4246 7.66769 18.9911C7.8541 18.5576 8.12625 18.1641 8.46864 17.8331C8.81103 17.5021 9.21694 17.2401 9.66319 17.0621C10.1094 16.8841 10.5873 16.7934 11.0695 16.7954V16.7574ZM13.5328 33.5605C13.2889 33.5605 13.0504 33.6311 12.8477 33.7634C12.645 33.8957 12.4871 34.0837 12.3942 34.3035C12.3012 34.5234 12.2772 34.7652 12.3254 34.9983C12.3735 35.2315 12.4916 35.4454 12.6647 35.613C12.8377 35.7806 13.0579 35.8944 13.2973 35.9398C13.5368 35.9853 13.7847 35.9605 14.0096 35.8684C14.2345 35.7764 14.4263 35.6213 14.5607 35.4228C14.6951 35.2244 14.766 34.9914 14.7645 34.7536C14.7543 34.4425 14.6198 34.1476 14.3897 33.9318C14.1596 33.716 13.8521 33.5963 13.5328 33.5985V33.5605Z" fill="#4D7FBE"/>
</g>
<defs>
<clipPath id="clip0_131522_139">
<rect width="32" height="36" fill="white"/>
</clipPath>
</defs>
</svg>
