<svg width="32" height="24" viewBox="0 0 32 24" fill="none" xmlns="http://www.w3.org/2000/svg">
<g clip-path="url(#clip0_131510_30)">
<path d="M24.8033 24.0003C28.7813 24.0003 32.0062 20.666 32.0062 16.5529C32.0062 12.4398 28.7813 9.10547 24.8033 9.10547C20.8252 9.10547 17.6003 12.4398 17.6003 16.5529C17.6003 20.666 20.8252 24.0003 24.8033 24.0003Z" fill="#FF7A00"/>
<path d="M19.4194 19.256C19.0223 19.2561 18.6365 19.1196 18.3227 18.8679C18.0089 18.6162 17.7851 18.2637 17.6865 17.866C17.6187 17.5982 16.0831 11.1837 19.2591 5.94251C21.1092 2.88193 24.1371 0.898938 28.2381 0.0381512C28.7034 -0.0590855 29.187 0.0387806 29.5825 0.31022C29.9781 0.58166 30.2531 1.00444 30.3472 1.48555C30.4412 1.96666 30.3465 2.46669 30.084 2.87564C29.8215 3.2846 29.4126 3.56897 28.9473 3.66621C25.8638 4.30383 23.6191 5.73209 22.3055 7.88725C19.9374 11.764 21.14 16.9032 21.1523 16.9542C21.2117 17.1895 21.2256 17.4346 21.1933 17.6755C21.1609 17.9163 21.083 18.1482 20.9638 18.3579C20.8447 18.5676 20.6867 18.7509 20.4989 18.8973C20.3112 19.0438 20.0973 19.1505 19.8696 19.2114C19.7219 19.2456 19.5707 19.2606 19.4194 19.256Z" fill="#FF7A00"/>
<path d="M7.53594 24.0003C11.514 24.0003 14.7389 20.666 14.7389 16.5529C14.7389 12.4398 11.514 9.10547 7.53594 9.10547C3.55787 9.10547 0.333008 12.4398 0.333008 16.5529C0.333008 20.666 3.55787 24.0003 7.53594 24.0003Z" fill="#FF7A00"/>
<path d="M2.15185 19.256C1.75474 19.2561 1.36888 19.1196 1.05512 18.8679C0.741363 18.6162 0.517543 18.2637 0.41895 17.866C0.351114 17.5982 -1.18444 11.1837 1.99151 5.94251C3.84157 2.88193 6.86952 0.898938 10.9705 0.0381512C11.4358 -0.0590855 11.9194 0.0387806 12.315 0.31022C12.7105 0.58166 12.9855 1.00444 13.0796 1.48555C13.1736 1.96666 13.079 2.46669 12.8164 2.87564C12.5539 3.2846 12.145 3.56897 11.6797 3.66621C8.59625 4.30383 6.3515 5.73209 5.03795 7.88725C2.6822 11.764 3.88474 16.9032 3.89708 16.9542C3.95627 17.1903 3.96969 17.4363 3.93655 17.6778C3.90341 17.9193 3.82438 18.1517 3.704 18.3615C3.58362 18.5713 3.42427 18.7544 3.23515 18.9003C3.04602 19.0462 2.83085 19.1519 2.60203 19.2114C2.45436 19.2456 2.30312 19.2606 2.15185 19.256Z" fill="#FF7A00"/>
</g>
<defs>
<clipPath id="clip0_131510_30">
<rect width="32" height="24" fill="white"/>
</clipPath>
</defs>
</svg>
