<svg width="32" height="34" viewBox="0 0 32 34" fill="none" xmlns="http://www.w3.org/2000/svg">
<path d="M29.7831 5.55709L17.0897 0.244071C16.7031 0.0829398 16.2886 0 15.87 0C15.4514 0 15.0369 0.0829398 14.6502 0.244071L1.95689 5.55709C0.7735 6.04854 0 7.21077 0 8.49917C0 21.6821 7.56972 30.7939 14.6436 33.7559C15.4237 34.0814 16.303 34.0814 17.0831 33.7559C22.7488 31.385 31.7333 23.1963 31.7333 8.49917C31.7333 7.21077 30.9598 6.04854 29.7831 5.55709ZM15.8733 29.6383L15.8667 4.3351L27.4956 9.20315C27.2774 19.258 22.0679 26.5435 15.8733 29.6383V29.6383Z" fill="white"/>
</svg>
