<svg width="37" height="30" viewBox="0 0 37 30" fill="none" xmlns="http://www.w3.org/2000/svg">
<path d="M14.8272 12.7014L19.8412 19.0987C19.8412 19.0987 18.8815 25.0964 15.4145 27.8949C11.9475 30.6945 0 29.8941 0 29.8941C0 29.8941 0.219687 28.5382 0.635937 26.6462L6.10615 20.0737C6.33566 19.7983 6.05585 19.3929 5.7217 19.5171L2.22983 20.8114C3.06464 18.3704 4.12145 16.1216 5.38638 15.1003C8.8534 12.3018 14.8272 12.7014 14.8272 12.7014V12.7014ZM36.7993 1.81817L35.6512 0.353323C35.3338 -0.0509752 34.7539 -0.118358 34.3556 0.203323L20.9154 10.6213L18.9417 8.10355C18.6474 7.72797 18.0664 7.79828 17.8669 8.23305L16.4025 11.4293L21.4166 17.8266L24.816 17.0971C25.2785 16.9981 25.4762 16.4409 25.1825 16.0659L23.2117 13.551L36.6519 3.13302C37.0503 2.81193 37.1167 2.22306 36.7993 1.81817V1.81817Z" fill="white"/>
</svg>
