<svg width="36" height="36" viewBox="0 0 36 36" fill="none" xmlns="http://www.w3.org/2000/svg">
<g clip-path="url(#clip0_131522_156)">
<path d="M7.66871 18.004C7.66871 17.5753 7.49846 17.1643 7.19537 16.8612C6.89228 16.5581 6.48118 16.3878 6.05254 16.3878H1.68889C1.25061 16.3878 0.830325 16.5619 0.520417 16.8718C0.210508 17.1817 0.036377 17.6021 0.036377 18.0403C0.036377 18.4786 0.210508 18.8989 0.520417 19.2089C0.830325 19.5188 1.25061 19.6929 1.68889 19.6929H6.00406C6.2266 19.6998 6.44815 19.6606 6.65486 19.5779C6.86156 19.4951 7.04894 19.3706 7.20523 19.212C7.36153 19.0534 7.48341 18.8643 7.56316 18.6564C7.64291 18.4485 7.67883 18.2264 7.66871 18.004Z" fill="#4D7FBE"/>
<path d="M8.3554 10.699C8.66721 11.0081 9.08806 11.1823 9.52713 11.1838C9.9662 11.1823 10.3871 11.0081 10.6989 10.699C10.8528 10.5452 10.9749 10.3625 11.0582 10.1614C11.1415 9.9604 11.1844 9.7449 11.1844 9.52727C11.1844 9.30965 11.1415 9.09416 11.0582 8.89311C10.9749 8.69206 10.8528 8.5094 10.6989 8.35556L7.62007 5.27677C7.30535 4.97359 6.88535 4.8042 6.44835 4.8042C6.01134 4.8042 5.59134 4.97359 5.27662 5.27677C5.11895 5.42765 4.99347 5.60889 4.90774 5.80958C4.82202 6.01026 4.77783 6.22623 4.77783 6.44445C4.77783 6.66268 4.82202 6.87865 4.90774 7.07933C4.99347 7.28001 5.11895 7.46125 5.27662 7.61212L8.3554 10.699Z" fill="#4D7FBE"/>
<path d="M8.35544 25.301L5.27665 28.3879C5.12331 28.5417 5.00181 28.7243 4.91902 28.9251C4.83624 29.126 4.79382 29.3412 4.79419 29.5584C4.79457 29.7756 4.83772 29.9907 4.92119 30.1912C5.00467 30.3918 5.12683 30.5739 5.2807 30.7273C5.43457 30.8806 5.61716 31.0021 5.818 31.0849C6.01884 31.1677 6.23401 31.2101 6.45124 31.2097C6.66847 31.2094 6.88353 31.1662 7.08408 31.0827C7.28464 30.9992 7.46677 30.8771 7.62011 30.7232L10.6989 27.6444C10.8545 27.4919 10.9777 27.3095 11.0611 27.1081C11.1444 26.9068 11.1861 26.6906 11.1837 26.4727C11.185 26.2562 11.1427 26.0416 11.0594 25.8417C10.9761 25.6418 10.8535 25.4606 10.6989 25.3091C10.3843 25.0066 9.9652 24.8371 9.52879 24.8356C9.09239 24.8341 8.67215 25.0008 8.35544 25.301Z" fill="#4D7FBE"/>
<path d="M18.0041 7.66869C18.4295 7.65844 18.8347 7.48487 19.1356 7.18397C19.4365 6.88308 19.61 6.47793 19.6202 6.05253V1.69697C19.6202 1.25762 19.4457 0.83627 19.1351 0.525604C18.8244 0.214938 18.403 0.0404053 17.9637 0.0404053C17.5243 0.0404053 17.103 0.214938 16.7923 0.525604C16.4816 0.83627 16.3071 1.25762 16.3071 1.69697V6.05253C16.3124 6.27009 16.3605 6.48449 16.4486 6.68347C16.5367 6.88246 16.6632 7.06212 16.8208 7.21221C16.9784 7.3623 17.164 7.47986 17.367 7.55819C17.57 7.63651 17.7865 7.67406 18.0041 7.66869Z" fill="#4D7FBE"/>
<path d="M26.4727 11.1838C26.6906 11.1862 26.9068 11.1445 27.1081 11.0611C27.3095 10.9778 27.4919 10.8546 27.6444 10.699L30.7313 7.61212C30.8889 7.46125 31.0144 7.28001 31.1001 7.07933C31.1859 6.87865 31.2301 6.66268 31.2301 6.44445C31.2301 6.22623 31.1859 6.01026 31.1001 5.80958C31.0144 5.60889 30.8889 5.42765 30.7313 5.27677C30.4165 4.97359 29.9966 4.8042 29.5596 4.8042C29.1226 4.8042 28.7026 4.97359 28.3879 5.27677L25.3091 8.35556C25.0777 8.58675 24.92 8.88124 24.8558 9.20192C24.7915 9.52261 24.8236 9.85513 24.9481 10.1576C25.0725 10.46 25.2837 10.7189 25.555 10.9015C25.8263 11.0842 26.1457 11.1824 26.4727 11.1838Z" fill="#4D7FBE"/>
<path d="M34.3435 16.3474H29.988C29.5497 16.3474 29.1293 16.5215 28.8194 16.8314C28.5095 17.1413 28.3354 17.5617 28.3354 17.9999C28.3354 18.4382 28.5095 18.8586 28.8194 19.1685C29.1293 19.4784 29.5497 19.6525 29.988 19.6525H34.3435C34.7818 19.6525 35.2021 19.4784 35.512 19.1685C35.822 18.8586 35.996 18.4382 35.996 17.9999C35.996 17.5617 35.822 17.1413 35.512 16.8314C35.2021 16.5215 34.7818 16.3474 34.3435 16.3474Z" fill="#4D7FBE"/>
<path d="M27.6444 25.3011C27.3292 25.0021 26.9112 24.8354 26.4767 24.8354C26.0423 24.8354 25.6243 25.0021 25.3091 25.3011C25.1551 25.4549 25.033 25.6375 24.9497 25.8386C24.8664 26.0396 24.8235 26.2551 24.8235 26.4728C24.8235 26.6904 24.8664 26.9059 24.9497 27.1069C25.033 27.308 25.1551 27.4907 25.3091 27.6445L28.3878 30.7233C28.5397 30.8804 28.7218 31.0051 28.9232 31.0898C29.1246 31.1745 29.3411 31.2175 29.5596 31.2162C29.998 31.2112 30.4175 31.0376 30.7312 30.7314C30.8852 30.5775 31.0073 30.3949 31.0906 30.1938C31.1739 29.9928 31.2168 29.7773 31.2168 29.5596C31.2168 29.342 31.1739 29.1265 31.0906 28.9255C31.0073 28.7244 30.8852 28.5418 30.7312 28.3879L27.6444 25.3011Z" fill="#4D7FBE"/>
<path d="M18.0041 8.71924C16.1674 8.71764 14.3715 9.26084 12.8435 10.2801C11.3156 11.2994 10.1242 12.7489 9.42025 14.4453C8.71626 16.1418 8.53127 18.0089 8.88862 19.8105C9.24596 21.6121 10.1296 23.2673 11.4278 24.5666C12.726 25.8659 14.3804 26.751 16.1817 27.1099C17.983 27.4688 19.8503 27.2854 21.5473 26.5829C23.2444 25.8804 24.6949 24.6904 25.7155 23.1633C26.7361 21.6363 27.2809 19.8408 27.2809 18.0041C27.2787 15.5437 26.3009 13.1845 24.5619 11.4439C22.8229 9.70337 20.4645 8.72352 18.0041 8.71924ZM23.9758 18.0041C23.9758 19.1852 23.6256 20.3398 22.9694 21.3218C22.3132 22.3038 21.3806 23.0693 20.2894 23.5212C19.1982 23.9732 17.9975 24.0915 16.8391 23.8611C15.6807 23.6306 14.6166 23.0619 13.7814 22.2267C12.9463 21.3916 12.3775 20.3275 12.1471 19.1691C11.9167 18.0107 12.035 16.81 12.487 15.7188C12.9389 14.6276 13.7043 13.695 14.6864 13.0388C15.6684 12.3826 16.823 12.0324 18.0041 12.0324C19.5872 12.0345 21.1049 12.6644 22.2244 13.7838C23.3438 14.9033 23.9737 16.421 23.9758 18.0041Z" fill="#4D7FBE"/>
<path d="M18.004 28.3313C17.5646 28.3313 17.1433 28.5058 16.8326 28.8165C16.522 29.1272 16.3474 29.5485 16.3474 29.9879V34.3434C16.3474 34.7828 16.522 35.2041 16.8326 35.5148C17.1433 35.8254 17.5646 36 18.004 36C18.4433 36 18.8647 35.8254 19.1754 35.5148C19.486 35.2041 19.6606 34.7828 19.6606 34.3434V29.9879C19.6606 29.5485 19.486 29.1272 19.1754 28.8165C18.8647 28.5058 18.4433 28.3313 18.004 28.3313Z" fill="#4D7FBE"/>
</g>
<defs>
<clipPath id="clip0_131522_156">
<rect width="36" height="36" fill="white"/>
</clipPath>
</defs>
</svg>
